M48
;Layer_Color=9474304
;FILE_FORMAT=2:5
INCH,LZ
;TYPE=PLATED
T1F00S00C0.02756
T2F00S00C0.03000
T3F00S00C0.03150
T4F00S00C0.03346
T5F00S00C0.03543
%
T01
X00385Y01595
Y01895
T02
X00935Y01365
Y01465
Y01565
Y01665
X01185
Y01565
Y01465
Y01365
T03
X0013Y01275
X0023
T04
X0045Y01275
X0075
X01335Y01255
Y01555
Y01685
Y01985
T05
X01005Y0193
X01105
M30
