G04 Layer_Physical_Order=2*
G04 Layer_Color=16711680*
%FSLAX23Y23*%
%MOIN*%
G70*
G01*
G75*
%ADD10C,0.010*%
%ADD11C,0.047*%
%ADD12R,0.047X0.047*%
%ADD13C,0.063*%
%ADD14C,0.059*%
%ADD15R,0.059X0.059*%
%ADD16C,0.055*%
%ADD17C,0.060*%
D10*
X935Y1225D02*
Y1365D01*
Y1225D02*
X960Y1200D01*
X1425D01*
X1450Y1225D01*
Y1950D01*
X1400Y1985D02*
X1450Y1950D01*
X1335Y1985D02*
X1400D01*
X935Y1565D02*
X1185Y1465D01*
X385Y1595D02*
X500D01*
X530Y1565D01*
X935D01*
X230Y1275D02*
X450D01*
X750Y1280D02*
X935Y1465D01*
X750Y1275D02*
Y1280D01*
X130Y1275D02*
Y1640D01*
X385Y1895D01*
X840D02*
X935Y1800D01*
X385Y1895D02*
X840D01*
X935Y1665D02*
Y1800D01*
X960D01*
X1005Y1845D01*
Y1930D01*
X1305Y1255D02*
X1335D01*
X1265Y1295D02*
X1305Y1255D01*
X1265Y1295D02*
Y1450D01*
X1250Y1465D02*
X1265Y1450D01*
X1185Y1465D02*
X1250D01*
X1185Y1665D02*
Y1800D01*
X1150D02*
X1185D01*
X1105Y1845D02*
X1150Y1800D01*
X1105Y1845D02*
Y1930D01*
X1205D01*
X1260Y1985D01*
X1335D01*
X1185Y1555D02*
X1335D01*
Y1685D01*
X1185Y1555D02*
Y1565D01*
D11*
X385Y1895D02*
D03*
D12*
Y1595D02*
D03*
D13*
X130Y1275D02*
D03*
X230D02*
D03*
D14*
X1005Y1930D02*
D03*
D15*
X1105D02*
D03*
D16*
X1335Y1685D02*
D03*
Y1985D02*
D03*
X450Y1275D02*
D03*
X750D02*
D03*
X1335Y1255D02*
D03*
Y1555D02*
D03*
D17*
X935Y1665D02*
D03*
Y1565D02*
D03*
Y1465D02*
D03*
Y1365D02*
D03*
X1185D02*
D03*
Y1465D02*
D03*
Y1565D02*
D03*
Y1665D02*
D03*
M02*
